<svg xmlns="http://www.w3.org/2000/svg" xmlns:xlink="http://www.w3.org/1999/xlink" width="205pt" height="392pt" viewBox="0.00 0.00 204.74 392.00">
<g id="graph0" class="graph" transform="scale(1 1) rotate(0) translate(4 388)">
<!-- 140502399726832 -->
<g id="node1" class="node">
<title>140502399726832</title>
<ellipse fill="none" stroke="black" cx="80.89" cy="-18" rx="64.99" ry="18"/>
<text text-anchor="middle" x="80.89" y="-14.3" font-family="Times,serif" font-size="14.00">contrast_image</text>
</g>
<!-- 140502399728272 -->
<g id="node2" class="node">
<title>140502399728272</title>
<ellipse fill="none" stroke="black" cx="80.89" cy="-105" rx="56.59" ry="18"/>
<text text-anchor="middle" x="80.89" y="-101.3" font-family="Times,serif" font-size="14.00">blend_image</text>
</g>
<!-- 140502399728272&#45;&gt;140502399726832 -->
<g id="edge1" class="edge">
<title>140502399728272-&gt;140502399726832</title>
<path fill="none" stroke="black" d="M80.89,-86.8C80.89,-75.16 80.89,-59.55 80.89,-46.24"/>
<polygon fill="black" stroke="black" points="84.39,-46.18 80.89,-36.18 77.39,-46.18 84.39,-46.18"/>
<text text-anchor="middle" x="97.89" y="-57.8" font-family="Times,serif" font-size="14.00">image</text>
</g>
<!-- 140502399728512 -->
<g id="node3" class="node">
<title>140502399728512</title>
<ellipse fill="none" stroke="black" cx="134.89" cy="-192" rx="51.19" ry="18"/>
<text text-anchor="middle" x="134.89" y="-188.3" font-family="Times,serif" font-size="14.00">blur_image</text>
</g>
<!-- 140502399728512&#45;&gt;140502399728272 -->
<g id="edge2" class="edge">
<title>140502399728512-&gt;140502399728272</title>
<path fill="none" stroke="black" d="M124.23,-174.21C116.46,-161.98 105.81,-145.21 97.01,-131.36"/>
<polygon fill="black" stroke="black" points="99.86,-129.32 91.54,-122.76 93.95,-133.08 99.86,-129.32"/>
<text text-anchor="middle" x="121.89" y="-144.8" font-family="Times,serif" font-size="14.00">im1</text>
</g>
<!-- 140502399727360 -->
<g id="node4" class="node">
<title>140502399727360</title>
<ellipse fill="none" stroke="black" cx="138.89" cy="-279" rx="57.69" ry="18"/>
<text text-anchor="middle" x="138.89" y="-275.3" font-family="Times,serif" font-size="14.00">invert_image</text>
</g>
<!-- 140502399727360&#45;&gt;140502399728512 -->
<g id="edge3" class="edge">
<title>140502399727360-&gt;140502399728512</title>
<path fill="none" stroke="black" d="M138.08,-260.8C137.54,-249.16 136.8,-233.55 136.18,-220.24"/>
<polygon fill="black" stroke="black" points="139.67,-220 135.7,-210.18 132.68,-220.33 139.67,-220"/>
<text text-anchor="middle" x="153.89" y="-231.8" font-family="Times,serif" font-size="14.00">image</text>
</g>
<!-- 140502399438704 -->
<g id="node5" class="node">
<title>140502399438704</title>
<ellipse fill="none" stroke="black" cx="68.89" cy="-366" rx="68.79" ry="18"/>
<text text-anchor="middle" x="68.89" y="-362.3" font-family="Times,serif" font-size="14.00">rgb2gray_image</text>
</g>
<!-- 140502399438704&#45;&gt;140502399728272 -->
<g id="edge5" class="edge">
<title>140502399438704-&gt;140502399728272</title>
<path fill="none" stroke="black" d="M69.09,-347.86C69.55,-314.41 70.97,-238.08 74.89,-174 75.72,-160.55 76.99,-145.64 78.16,-133.21"/>
<polygon fill="black" stroke="black" points="81.66,-133.32 79.14,-123.03 74.7,-132.65 81.66,-133.32"/>
<text text-anchor="middle" x="83.89" y="-231.8" font-family="Times,serif" font-size="14.00">im2</text>
</g>
<!-- 140502399438704&#45;&gt;140502399727360 -->
<g id="edge4" class="edge">
<title>140502399438704-&gt;140502399727360</title>
<path fill="none" stroke="black" d="M82.72,-348.21C92.98,-335.75 107.13,-318.57 118.66,-304.57"/>
<polygon fill="black" stroke="black" points="121.44,-306.7 125.09,-296.76 116.03,-302.25 121.44,-306.7"/>
<text text-anchor="middle" x="124.89" y="-318.8" font-family="Times,serif" font-size="14.00">image</text>
</g>
</g>
</svg>